# xmcd
#
# Track frame offsets: 
#        150
#        15215
#        31993
#        50137
#        66616
#
# Disc length: 1129 seconds
#
# Revision: 0
# Processed by: cddbd v1.5.2PL0 Copyright (c) Steve Scherf et al.
# Submitted via: ExactAudioCopy v1.3
#
DISCID=3e046705
DTITLE=Niecie - Beyond the Surface
DYEAR=2011
DGENRE=Blues Rock
TTITLE0=Draw The Line
TTITLE1=The Other Side
TTITLE2=Rockin' A Baby
TTITLE3=Not No, Hell No
TTITLE4=Skin To Skin
EXTD=
EXTT0=
EXTT1=
EXTT2=
EXTT3=
EXTT4=
PLAYORDER=
